<svg width="64" height="64" viewBox="0 0 64 64" fill="none" xmlns="http://www.w3.org/2000/svg">
  <circle cx="32" cy="32" r="30" fill="#25D366"/>
  <path d="M45.4 18.5A18.4 18.4 0 0 0 16.6 40.7L14.5 49.5L23.5 47.4A18.4 18.4 0 0 0 45.4 18.5Z" fill="white"/>
  <path d="M41.4 36.8C40.9 36.5 38.5 35.3 38.1 35.1C37.6 34.9 37.2 34.8 36.9 35.3C36.5 35.8 35.5 37 35.2 37.4C34.9 37.7 34.6 37.8 34.1 37.5C33.6 37.3 31.9 36.7 29.9 34.9C28.3 33.5 27.3 31.8 27 31.3C26.7 30.8 27 30.5 27.3 30.2C27.5 29.9 27.8 29.6 28.1 29.3C28.3 29 28.4 28.8 28.6 28.4C28.8 28.1 28.7 27.8 28.5 27.5C28.4 27.2 27.3 24.8 26.9 23.8C26.4 22.8 26 22.9 25.7 22.9H24.7C24.4 22.9 23.8 23 23.4 23.5C22.9 24 21.7 25.1 21.7 27.4C21.7 29.7 23.4 31.9 23.6 32.2C23.8 32.5 27 37.5 31.8 39.6C36.6 41.7 36.6 41 37.5 40.9C38.4 40.8 40.5 39.7 40.9 38.6C41.3 37.5 41.3 36.9 41.2 36.8H41.4Z" fill="#25D366"/>
</svg>
